<?xml version="1.0" encoding="utf-8"?>
<svg xmlns="http://www.w3.org/2000/svg" xmlns:svg="http://www.w3.org/2000/svg" version="1.1" viewBox="0 0 1400 590">
	<title>The titlepage for the Standard Ebooks edition of The Little Demon, by Fyodor Sologub. Translated by John Cournos and Richard Aldington</title>
	<g>
		<path d="m 209.37499,61.789107 57.70285,0 0,7.766813 -24.21418,0 0,60.44408 -9.27449,0 0,-60.44408 -24.21418,0 0,-7.766813 z"/>
		<path d="m 281.03252,61.789107 9.2288,0 0,27.960527 33.53436,0 0,-27.960527 9.2288,0 0,68.210893 -9.2288,0 0,-32.483553 -33.53436,0 0,32.483553 -9.2288,0 0,-68.210893 z"/>
		<path d="m 356.3907,61.789107 43.12866,0 0,7.766813 -33.89986,0 0,20.193714 32.48356,0 0,7.766813 -32.48356,0 0,24.716743 34.72222,0 0,7.76681 -43.95102,0 0,-68.210893 z"/>
		<path d="m 455.38925,61.789107 9.2288,0 0,60.444083 33.21455,0 0,7.76681 -42.44335,0 0,-68.210893 z"/>
		<path d="m 512.47258,61.789107 9.2288,0 0,68.210893 -9.2288,0 0,-68.210893 z"/>
		<path d="m 535.61037,61.789107 57.70286,0 0,7.766813 -24.21419,0 0,60.44408 -9.27448,0 0,-60.44408 -24.21419,0 0,-7.766813 z"/>
		<path d="m 596.16595,61.789107 57.70285,0 0,7.766813 -24.21418,0 0,60.44408 -9.27449,0 0,-60.44408 -24.21418,0 0,-7.766813 z"/>
		<path d="m 667.82347,61.789107 9.2288,0 0,60.444083 33.21455,0 0,7.76681 -42.44335,0 0,-68.210893 z"/>
		<path d="m 724.90681,61.789107 43.12866,0 0,7.766813 -33.89985,0 0,20.193714 32.48355,0 0,7.766813 -32.48355,0 0,24.716743 34.72222,0 0,7.76681 -43.95103,0 0,-68.210893 z"/>
		<path d="m 833.13415,69.373171 0,53.042769 11.14766,0 q 14.11733,0 20.65059,-6.3962 6.57894,-6.3962 6.57894,-20.193717 0,-13.706141 -6.57894,-20.056653 -6.53326,-6.396199 -20.65059,-6.396199 l -11.14766,0 z m -9.2288,-7.584064 18.96016,0 q 19.82822,0 29.10271,8.269371 9.27448,8.223685 9.27448,25.767545 0,17.635237 -9.32017,25.904607 Q 862.60235,130 842.86551,130 l -18.96016,0 0,-68.210893 z"/>
		<path d="m 900.90828,61.789107 43.12865,0 0,7.766813 -33.89985,0 0,20.193714 32.48355,0 0,7.766813 -32.48355,0 0,24.716743 34.72222,0 0,7.76681 -43.95102,0 0,-68.210893 z"/>
		<path d="m 965.11879,61.789107 13.75183,0 17.4068,46.418133 17.49818,-46.418133 13.7518,0 0,68.210893 -9.0003,0 0,-59.895834 -17.5896,46.783624 -9.27449,0 -17.58954,-46.783624 0,59.895834 -8.95468,0 0,-68.210893 z"/>
		<path d="m 1078.58,68.048245 q -10.0511,0 -15.9905,7.49269 -5.8936,7.49269 -5.8936,20.422149 0,12.883776 5.8936,20.376466 5.9394,7.49269 15.9905,7.49269 10.0512,0 15.8992,-7.49269 5.8936,-7.49269 5.8936,-20.376466 0,-12.929459 -5.8936,-20.422149 -5.848,-7.49269 -15.8992,-7.49269 z m 0,-7.492691 q 14.3458,0 22.935,9.639986 8.5892,9.594298 8.5892,25.767544 0,16.127556 -8.5892,25.767546 -8.5892,9.5943 -22.935,9.5943 -14.3914,0 -23.0263,-9.5943 -8.5892,-9.5943 -8.5892,-25.767546 0,-16.173246 8.5892,-25.767544 8.6349,-9.639986 23.0263,-9.639986 z"/>
		<path d="m 1129.5413,61.789107 12.4269,0 30.2449,57.063233 0,-57.063233 8.9546,0 0,68.210893 -12.4269,0 -30.2448,-57.063232 0,57.063232 -8.9547,0 0,-68.210893 z"/>
	</g>
	<g>
		<path d="m 344.06936,238.84183 29.39967,0 0,5.82511 -22.47807,0 0,15.07676 20.28508,0 0,5.82511 -20.28508,0 0,24.43119 -6.9216,0 0,-51.15817 z"/>
		<path d="m 382.47807,238.84183 7.43558,0 14.18586,21.03893 14.08306,-21.03893 7.43558,0 -18.09211,26.79551 0,24.36266 -6.95586,0 0,-24.36266 -18.09211,-26.79551 z"/>
		<path d="m 454.32977,243.53618 q -7.53838,0 -11.99287,5.61952 -4.42023,5.61952 -4.42023,15.31661 0,9.66283 4.42023,15.28235 4.45449,5.61952 11.99287,5.61952 7.53838,0 11.92434,-5.61952 4.42023,-5.61952 4.42023,-15.28235 0,-9.69709 -4.42023,-15.31661 -4.38596,-5.61952 -11.92434,-5.61952 z m 0,-5.61951 q 10.75932,0 17.20121,7.22999 6.44188,7.19572 6.44188,19.32565 0,12.09567 -6.44188,19.32566 -6.44189,7.19573 -17.20121,7.19573 -10.79358,0 -17.26973,-7.19573 -6.44189,-7.19572 -6.44189,-19.32566 0,-12.12993 6.44189,-19.32565 6.47615,-7.22999 17.26973,-7.22999 z"/>
		<path d="m 500.72231,244.52988 0,39.78207 8.36075,0 q 10.58799,0 15.48793,-4.79715 4.93422,-4.79715 4.93422,-15.14528 0,-10.27961 -4.93422,-15.04249 -4.89994,-4.79715 -15.48793,-4.79715 l -8.36075,0 z m -6.9216,-5.68805 14.22012,0 q 14.87116,0 21.82703,6.20203 6.95586,6.16776 6.95586,19.32566 0,13.22642 -6.99013,19.42845 Q 522.82346,290 508.02083,290 l -14.22012,0 0,-51.15817 z"/>
		<path d="m 573.56771,243.53618 q -7.53838,0 -11.99287,5.61952 -4.42023,5.61952 -4.42023,15.31661 0,9.66283 4.42023,15.28235 4.45449,5.61952 11.99287,5.61952 7.53838,0 11.92434,-5.61952 4.42023,-5.61952 4.42023,-15.28235 0,-9.69709 -4.42023,-15.31661 -4.38596,-5.61952 -11.92434,-5.61952 z m 0,-5.61951 q 10.75932,0 17.20121,7.22999 6.44188,7.19572 6.44188,19.32565 0,12.09567 -6.44188,19.32566 -6.44189,7.19573 -17.20121,7.19573 -10.79359,0 -17.26974,-7.19573 -6.44188,-7.19572 -6.44188,-19.32566 0,-12.12993 6.44188,-19.32565 6.47615,-7.22999 17.26974,-7.22999 z"/>
		<path d="m 637.29852,266.01425 q 2.22725,0.75384 4.31744,3.22095 2.12445,2.4671 4.2489,6.78454 l 7.0244,13.98026 -7.43558,0 -6.54468,-13.12363 q -2.53564,-5.1398 -4.93422,-6.8188 -2.3643,-1.67901 -6.47615,-1.67901 l -7.53837,0 0,21.62144 -6.9216,0 0,-51.15817 15.625,0 q 8.77193,0 13.08936,3.66639 4.31743,3.6664 4.31743,11.06771 0,4.83142 -2.26151,8.01809 -2.22725,3.18668 -6.51042,4.42023 z m -17.33826,-21.48437 0,18.16064 8.7034,0 q 5.00274,0 7.53837,-2.29578 2.5699,-2.33005 2.5699,-6.81881 0,-4.48876 -2.5699,-6.75027 -2.53563,-2.29578 -7.53837,-2.29578 l -8.7034,0 z"/>
		<path d="m 724.841,240.52083 0,6.75028 q -3.94051,-1.8846 -7.43558,-2.80976 -3.49507,-0.92517 -6.75027,-0.92517 -5.65379,0 -8.73767,2.19299 -3.04961,2.19298 -3.04961,6.23629 0,3.39227 2.02165,5.1398 2.05592,1.71327 7.74397,2.7755 l 4.18037,0.85663 q 7.74397,1.47341 11.41037,5.20833 3.70065,3.70066 3.70065,9.93696 0,7.43558 -5.00274,11.2733 -4.96847,3.83772 -14.59704,3.83772 -3.63212,0 -7.74397,-0.82237 -4.07757,-0.82237 -8.46354,-2.43284 l 0,-7.1272 q 4.21464,2.36431 8.25795,3.5636 4.04331,1.19929 7.94956,1.19929 5.92791,0 9.14885,-2.33005 3.22094,-2.33004 3.22094,-6.64747 0,-3.76919 -2.33004,-5.89364 -2.29578,-2.12446 -7.57264,-3.18668 l -4.21464,-0.82237 q -7.74397,-1.54194 -11.20477,-4.83141 -3.4608,-3.28948 -3.4608,-9.14885 0,-6.78454 4.76288,-10.69079 4.79715,-3.90625 13.19216,-3.90625 3.59787,0 7.33279,0.65104 3.73492,0.65104 7.64117,1.95312 z"/>
		<path d="m 764.48327,243.53618 q -7.53838,0 -11.99288,5.61952 -4.42023,5.61952 -4.42023,15.31661 0,9.66283 4.42023,15.28235 4.4545,5.61952 11.99288,5.61952 7.53837,0 11.92434,-5.61952 4.42023,-5.61952 4.42023,-15.28235 0,-9.69709 -4.42023,-15.31661 -4.38597,-5.61952 -11.92434,-5.61952 z m 0,-5.61951 q 10.75932,0 17.2012,7.22999 6.44189,7.19572 6.44189,19.32565 0,12.09567 -6.44189,19.32566 -6.44188,7.19573 -17.2012,7.19573 -10.79359,0 -17.26974,-7.19573 -6.44189,-7.19572 -6.44189,-19.32566 0,-12.12993 6.44189,-19.32565 6.47615,-7.22999 17.26974,-7.22999 z"/>
		<path d="m 803.95421,238.84183 6.9216,0 0,45.33306 24.91091,0 0,5.82511 -31.83251,0 0,-51.15817 z"/>
		<path d="m 866.31441,243.53618 q -7.53837,0 -11.99287,5.61952 -4.42023,5.61952 -4.42023,15.31661 0,9.66283 4.42023,15.28235 4.4545,5.61952 11.99287,5.61952 7.53838,0 11.92435,-5.61952 4.42023,-5.61952 4.42023,-15.28235 0,-9.69709 -4.42023,-15.31661 -4.38597,-5.61952 -11.92435,-5.61952 z m 0,-5.61951 q 10.75932,0 17.20121,7.22999 6.44189,7.19572 6.44189,19.32565 0,12.09567 -6.44189,19.32566 -6.44189,7.19573 -17.20121,7.19573 -10.79358,0 -17.26973,-7.19573 -6.44189,-7.19572 -6.44189,-19.32566 0,-12.12993 6.44189,-19.32565 6.47615,-7.22999 17.26973,-7.22999 z"/>
		<path d="m 940.66749,282.70148 0,-13.74041 -11.30757,0 0,-5.68804 18.16064,0 0,21.96409 q -4.00905,2.84402 -8.84046,4.31743 -4.83142,1.43915 -10.31387,1.43915 -11.99288,0 -18.77742,-6.99014 -6.75027,-7.02439 -6.75027,-19.53125 0,-12.54111 6.75027,-19.53125 6.78454,-7.02439 18.77742,-7.02439 5.00274,0 9.4915,1.23355 4.52302,1.23355 8.32648,3.63213 l 0,7.36705 q -3.83772,-3.25521 -8.15516,-4.89995 -4.31743,-1.64473 -9.08031,-1.64473 -9.38871,0 -14.11733,5.24259 -4.69435,5.2426 -4.69435,15.625 0,10.34814 4.69435,15.59074 4.72862,5.2426 14.11733,5.2426 3.66639,0 6.54468,-0.61678 2.87829,-0.65104 5.17407,-1.98739 z"/>
		<path d="m 964.41065,238.84183 6.95586,0 0,31.07867 q 0,8.22369 2.98109,11.85582 2.98108,3.59786 9.66283,3.59786 6.64748,0 9.62856,-3.59786 2.98109,-3.63213 2.98109,-11.85582 l 0,-31.07867 6.95582,0 0,31.93531 q 0,10.00548 -4.96843,15.11102 -4.93421,5.10554 -14.59704,5.10554 -9.6971,0 -14.66557,-5.10554 -4.93421,-5.10554 -4.93421,-15.11102 l 0,-31.93531 z"/>
		<path d="m 1028.5184,265.56881 0,18.74314 11.1019,0 q 5.5853,0 8.258,-2.29578 2.7069,-2.33004 2.7069,-7.09292 0,-4.79715 -2.7069,-7.05867 -2.6727,-2.29577 -8.258,-2.29577 l -11.1019,0 z m 0,-21.03893 0,15.41941 10.2453,0 q 5.0713,0 7.5384,-1.8846 2.5013,-1.91886 2.5013,-5.82511 0,-3.87198 -2.5013,-5.79084 -2.4671,-1.91886 -7.5384,-1.91886 l -10.2453,0 z m -6.9216,-5.68805 17.6809,0 q 7.9153,0 12.1984,3.28948 4.2832,3.28947 4.2832,9.35444 0,4.69435 -2.193,7.46984 -2.1929,2.7755 -6.4419,3.4608 5.1056,1.09649 7.9153,4.59156 2.8441,3.4608 2.8441,8.66913 0,6.85307 -4.6601,10.588 Q 1048.5636,290 1039.963,290 l -18.3662,0 0,-51.15817 z"/>
	</g>
	<g>
		<path d="m 576.58575,456.75345 -0.58116,2.96809 -7.6174,0 -2.46994,12.61955 q -0.12454,0.7057 -0.18681,1.18309 -0.0623,0.47738 -0.0623,0.74721 0,1.32837 0.78872,1.93029 0.80948,0.60192 2.57372,0.60192 l 3.86059,0 -0.64343,3.1964 -3.65303,0 q -3.40396,0 -5.08518,-1.32837 -1.66047,-1.32838 -1.66047,-4.02664 0,-0.47738 0.0623,-1.03779 0.0623,-0.58116 0.1868,-1.26611 l 2.46995,-12.61955 -3.23792,0 0.60192,-2.96809 3.17565,0 1.28686,-6.60035 3.81908,0 -1.26611,6.60035 7.63815,0 z"/>
		<path d="m 594.24897,460.28195 q -0.58116,-0.31134 -1.32837,-0.47739 -0.74721,-0.16604 -1.5982,-0.16604 -3.05111,0 -5.33425,2.32465 -2.28315,2.3039 -3.03036,6.18524 L 580.61238,480 l -3.81907,0 4.54553,-23.24655 3.81907,0 -0.72645,3.61152 q 1.51518,-2.01332 3.61152,-3.09262 2.11709,-1.0793 4.50401,-1.0793 0.62268,0 1.2246,0.083 0.60192,0.0623 1.20384,0.22831 l -0.72646,3.77757 z"/>
		<path d="M 615.64825,466.73702 613.05377,480 l -3.81908,0 0.7057,-3.52849 q -1.68122,2.07558 -3.83983,3.11337 -2.13785,1.01704 -4.77384,1.01704 -2.96809,0 -4.87763,-1.80576 -1.88878,-1.82651 -1.88878,-4.67006 0,-4.06815 3.23791,-6.43432 3.25867,-2.36616 8.96653,-2.36616 l 5.31349,0 0.20756,-1.01704 q 0.0415,-0.16604 0.0623,-0.35285 0.0208,-0.20756 0.0208,-0.62267 0,-1.84727 -1.51518,-2.86431 -1.49442,-1.03779 -4.21344,-1.03779 -1.86802,0 -3.83983,0.47738 -1.95105,0.47739 -4.02663,1.43216 l 0.66418,-3.5285 q 2.15861,-0.80948 4.21344,-1.20384 2.07559,-0.41511 4.00588,-0.41511 4.10966,0 6.24751,1.785 2.15861,1.785 2.15861,5.18896 0,0.68494 -0.10378,1.61896 -0.10378,0.91325 -0.31134,1.95105 z m -4.13041,1.57744 -3.81908,0 q -4.69082,0 -6.95321,1.26611 -2.24163,1.24535 -2.24163,3.88134 0,1.82651 1.14157,2.86431 1.16233,1.03779 3.1964,1.03779 3.11338,0 5.43803,-2.22088 2.32466,-2.24163 3.07187,-5.97768 l 0.16605,-0.85099 z"/>
		<path d="M 642.56858,465.96905 639.84956,480 l -3.83983,0 2.71902,-13.88566 q 0.1868,-0.97552 0.29058,-1.72273 0.10378,-0.74722 0.10378,-1.18309 0,-1.74349 -1.10006,-2.71901 -1.10006,-0.97553 -3.07187,-0.97553 -3.07186,0 -5.29274,2.05483 -2.22087,2.03407 -2.90581,5.54181 L 624.19966,480 l -3.81908,0 4.50402,-23.24655 3.81907,0 -0.76796,3.65303 q 1.5982,-2.01331 3.83983,-3.11337 2.24163,-1.10006 4.71158,-1.10006 3.07186,0 4.75308,1.66046 1.70198,1.66047 1.70198,4.67007 0,0.74721 -0.10378,1.5982 -0.083,0.85099 -0.26982,1.84727 z"/>
		<path d="m 667.12274,457.4384 -0.72645,3.61151 q -1.51518,-0.83023 -3.1964,-1.24535 -1.68123,-0.41511 -3.46623,-0.41511 -3.0096,0 -4.75309,1.03779 -1.72273,1.01704 -1.72273,2.78128 0,2.05483 4.02663,3.15489 0.31134,0.083 0.45663,0.12454 l 1.2246,0.3736 q 3.81907,1.05855 5.08518,2.22088 1.28686,1.16232 1.28686,3.17564 0,3.69454 -2.94733,6.01919 -2.92657,2.32466 -7.67966,2.32466 -1.84727,0 -3.88135,-0.35285 -2.03407,-0.35285 -4.48326,-1.10006 l 0.74721,-3.94361 q 2.09634,1.0793 4.13042,1.63971 2.03407,0.56041 3.90209,0.56041 2.80204,0 4.54553,-1.20384 1.76425,-1.20384 1.76425,-3.05111 0,-1.99256 -4.6078,-3.21715 l -0.39436,-0.10378 -1.30762,-0.3321 q -2.90581,-0.76796 -4.25494,-2.01331 -1.34913,-1.26611 -1.34913,-3.21716 0,-3.7153 2.78128,-5.89466 2.80204,-2.17936 7.59664,-2.17936 1.88878,0 3.67378,0.31133 1.80576,0.31134 3.54925,0.93402 z"/>
		<path d="m 675.81944,447.70391 3.81908,0 L 673.3495,480 l -3.81908,0 6.28902,-32.29609 z"/>
		<path d="M 702.65674,466.73702 700.06226,480 l -3.81907,0 0.7057,-3.52849 q -1.68123,2.07558 -3.83983,3.11337 -2.13786,1.01704 -4.77385,1.01704 -2.96808,0 -4.87762,-1.80576 -1.88878,-1.82651 -1.88878,-4.67006 0,-4.06815 3.23791,-6.43432 3.25867,-2.36616 8.96652,-2.36616 l 5.3135,0 0.20756,-1.01704 q 0.0415,-0.16604 0.0623,-0.35285 0.0208,-0.20756 0.0208,-0.62267 0,-1.84727 -1.51518,-2.86431 -1.49442,-1.03779 -4.21343,-1.03779 -1.86803,0 -3.83983,0.47738 -1.95105,0.47739 -4.02664,1.43216 l 0.66419,-3.5285 q 2.15861,-0.80948 4.21344,-1.20384 2.07558,-0.41511 4.00587,-0.41511 4.10966,0 6.24751,1.785 2.15861,1.785 2.15861,5.18896 0,0.68494 -0.10378,1.61896 -0.10378,0.91325 -0.31134,1.95105 z m -4.13041,1.57744 -3.81907,0 q -4.69082,0 -6.95321,1.26611 -2.24163,1.24535 -2.24163,3.88134 0,1.82651 1.14157,2.86431 1.16233,1.03779 3.1964,1.03779 3.11338,0 5.43803,-2.22088 2.32465,-2.24163 3.07186,-5.97768 l 0.16605,-0.85099 z"/>
		<path d="m 723.86921,456.75345 -0.58116,2.96809 -7.6174,0 -2.46994,12.61955 q -0.12454,0.7057 -0.1868,1.18309 -0.0623,0.47738 -0.0623,0.74721 0,1.32837 0.78872,1.93029 0.80948,0.60192 2.57373,0.60192 l 3.86058,0 -0.64343,3.1964 -3.65303,0 q -3.40396,0 -5.08518,-1.32837 -1.66047,-1.32838 -1.66047,-4.02664 0,-0.47738 0.0623,-1.03779 0.0623,-0.58116 0.1868,-1.26611 l 2.46995,-12.61955 -3.23791,0 0.60192,-2.96809 3.17564,0 1.28686,-6.60035 3.81908,0 -1.26611,6.60035 7.63815,0 z"/>
		<path d="m 743.02686,466.30114 q 0.0623,-0.33209 0.083,-0.68494 0.0415,-0.35285 0.0415,-0.7057 0,-2.53221 -1.49442,-4.00588 -1.47366,-1.47366 -4.02663,-1.47366 -2.84355,0 -5.02292,1.80576 -2.17936,1.785 -3.30018,5.08518 l 13.71962,-0.0208 z m 3.32093,2.98884 -17.767,0 q -0.12454,0.78873 -0.16605,1.24536 -0.0415,0.45662 -0.0415,0.78872 0,2.88506 1.76425,4.4625 1.785,1.57745 5.02291,1.57745 2.4907,0 4.71158,-0.56041 2.22087,-0.56041 4.13041,-1.63971 l -0.72645,3.77756 q -2.05483,0.83024 -4.25495,1.24535 -2.17936,0.41512 -4.44175,0.41512 -4.83611,0 -7.45135,-2.3039 -2.59448,-2.32465 -2.59448,-6.5796 0,-3.63227 1.28686,-6.74565 1.30762,-3.13413 3.81908,-5.58332 1.61895,-1.53594 3.83983,-2.36617 2.24163,-0.83023 4.75309,-0.83023 3.94361,0 6.26826,2.36616 2.34541,2.36617 2.34541,6.35129 0,0.95477 -0.12453,2.05483 -0.12454,1.0793 -0.37361,2.32465 z"/>
		<path d="m 766.50173,476.51302 q -1.53594,2.01332 -3.63228,3.05111 -2.09634,1.03779 -4.6493,1.03779 -3.48699,0 -5.52106,-2.36617 -2.01332,-2.38692 -2.01332,-6.51733 0,-3.44547 1.2246,-6.55885 1.22459,-3.13413 3.54925,-5.60408 1.53593,-1.63971 3.46622,-2.4907 1.9303,-0.87174 4.04739,-0.87174 2.24163,0 3.94361,1.0793 1.72274,1.0793 2.65675,3.09262 l 2.4907,-12.66106 3.83983,0 L 769.6151,480 l -3.83983,0 0.72646,-3.48698 z m -11.85159,-5.47954 q 0,3.00959 1.34913,4.69082 1.36989,1.68122 3.77756,1.68122 1.78501,0 3.30018,-0.85099 1.53594,-0.87175 2.69826,-2.55297 1.2246,-1.74349 1.9303,-4.02663 0.70569,-2.28315 0.70569,-4.50402 0,-2.88506 -1.36988,-4.50402 -1.34913,-1.61895 -3.73605,-1.61895 -1.80576,0 -3.36245,0.85098 -1.55669,0.85099 -2.65675,2.44919 -1.20384,1.72274 -1.93029,4.00588 -0.7057,2.28315 -0.7057,4.37949 z"/>
		<path d="m 810.29655,465.803 q 0,-3.00959 -1.39064,-4.71157 -1.36989,-1.70198 -3.79832,-1.70198 -1.76425,0 -3.32094,0.87174 -1.53593,0.85099 -2.6775,2.4907 -1.20384,1.72274 -1.90954,4.00588 -0.68494,2.26239 -0.68494,4.52478 0,2.8643 1.34913,4.50401 1.36988,1.61896 3.7568,1.61896 1.80576,0 3.34169,-0.83023 1.53594,-0.85099 2.69826,-2.49071 1.18309,-1.70197 1.90954,-3.96436 0.72646,-2.26239 0.72646,-4.31722 z m -11.87235,-5.52105 q 1.4114,-1.90954 3.5285,-2.98884 2.13785,-1.10006 4.4625,-1.10006 3.57001,0 5.66635,2.40767 2.1171,2.40768 2.1171,6.51734 0,3.36245 -1.24536,6.51733 -1.22459,3.15489 -3.50773,5.60408 -1.49442,1.61896 -3.44547,2.4907 -1.95105,0.87175 -4.0889,0.87175 -2.26239,0 -3.92286,-1.03779 -1.66047,-1.03779 -2.69826,-3.09262 L 794.60513,480 l -3.81908,0 6.28902,-32.29609 3.81908,0 -2.46995,12.57804 z"/>
		<path d="m 826.77668,482.15861 q -2.65675,4.4625 -4.33797,5.56256 -1.66047,1.12082 -4.25495,1.12082 l -3.0096,0 0.64343,-3.1964 2.20012,0 q 1.5982,0 2.71902,-0.87175 1.12081,-0.87174 2.51146,-3.40395 l 1.18308,-2.22088 -5.14745,-22.39556 4.04739,0 3.86059,17.80852 10.6685,-17.80852 4.00588,0 -15.0895,25.40516 z"/>
	</g>
	<g>
		<path d="m 115.19279,505.89455 4.6144,0 0,31.72972 q 0,6.16776 -2.35289,8.95468 -2.33004,2.78691 -7.51553,2.78691 l -1.75895,0 0,-3.8834 1.43914,0 q 3.06104,0 4.31743,-1.71327 1.2564,-1.71327 1.2564,-6.14492 l 0,-31.72972 z"/>
		<path d="m 147.83351,509.02412 q -5.02559,0 -7.99525,3.74635 -2.94682,3.74634 -2.94682,10.21107 0,6.44189 2.94682,10.18823 2.96966,3.74635 7.99525,3.74635 5.02558,0 7.94956,-3.74635 2.94682,-3.74634 2.94682,-10.18823 0,-6.46473 -2.94682,-10.21107 -2.92398,-3.74635 -7.94956,-3.74635 z m 0,-3.74634 q 7.17288,0 11.46747,4.81999 4.29459,4.79715 4.29459,12.88377 0,8.06378 -4.29459,12.88377 -4.29459,4.79715 -11.46747,4.79715 -7.19573,0 -11.51316,-4.79715 -4.29459,-4.79714 -4.29459,-12.88377 0,-8.08662 4.29459,-12.88377 4.31743,-4.81999 11.51316,-4.81999 z"/>
		<path d="m 175.81414,505.89455 4.6144,0 0,13.98027 16.76718,0 0,-13.98027 4.6144,0 0,34.10545 -4.6144,0 0,-16.24178 -16.76718,0 0,16.24178 -4.6144,0 0,-34.10545 z"/>
		<path d="m 215.99323,505.89455 6.21345,0 15.12244,28.53162 0,-28.53162 4.47734,0 0,34.10545 -6.21345,0 -15.12244,-28.53162 0,28.53162 -4.47734,0 0,-34.10545 z"/>
		<path d="m 301.4227,508.52156 0,4.86568 q -2.33005,-2.17014 -4.9799,-3.24378 -2.62701,-1.07365 -5.59668,-1.07365 -5.84795,0 -8.95467,3.58644 -3.10673,3.5636 -3.10673,10.32529 0,6.73885 3.10673,10.32529 3.10672,3.5636 8.95467,3.5636 2.96967,0 5.59668,-1.07365 2.64985,-1.07364 4.9799,-3.24378 l 0,4.81999 q -2.42142,1.64474 -5.13981,2.46711 -2.69554,0.82236 -5.71089,0.82236 -7.74397,0 -12.19846,-4.72862 -4.4545,-4.75146 -4.4545,-12.9523 0,-8.22368 4.4545,-12.9523 4.45449,-4.75146 12.19846,-4.75146 3.06104,0 5.75658,0.82237 2.71838,0.79952 5.09412,2.42141 z"/>
		<path d="m 327.43876,509.02412 q -5.02558,0 -7.99524,3.74635 -2.94683,3.74634 -2.94683,10.21107 0,6.44189 2.94683,10.18823 2.96966,3.74635 7.99524,3.74635 5.02559,0 7.94957,-3.74635 2.94682,-3.74634 2.94682,-10.18823 0,-6.46473 -2.94682,-10.21107 -2.92398,-3.74635 -7.94957,-3.74635 z m 0,-3.74634 q 7.17288,0 11.46747,4.81999 4.2946,4.79715 4.2946,12.88377 0,8.06378 -4.2946,12.88377 -4.29459,4.79715 -11.46747,4.79715 -7.19572,0 -11.51315,-4.79715 -4.29459,-4.79714 -4.29459,-12.88377 0,-8.08662 4.29459,-12.88377 4.31743,-4.81999 11.51315,-4.81999 z"/>
		<path d="m 354.894,505.89455 4.63724,0 0,20.71912 q 0,5.48246 1.98739,7.90387 1.98739,2.39858 6.44189,2.39858 4.43165,0 6.41904,-2.39858 1.98739,-2.42141 1.98739,-7.90387 l 0,-20.71912 4.63724,0 0,21.29021 q 0,6.67032 -3.31231,10.07401 -3.28948,3.40369 -9.73136,3.40369 -6.46473,0 -9.77705,-3.40369 -3.28947,-3.40369 -3.28947,-10.07401 l 0,-21.29021 z"/>
		<path d="m 410.85798,524.0095 q 1.48483,0.50256 2.87829,2.1473 1.4163,1.64473 2.8326,4.52302 L 421.2518,540 l -4.95705,0 -4.36312,-8.74909 q -1.69043,-3.42653 -3.28948,-4.54587 -1.5762,-1.11933 -4.31743,-1.11933 l -5.02559,0 0,14.41429 -4.6144,0 0,-34.10545 10.41667,0 q 5.84795,0 8.72624,2.44427 2.87829,2.44426 2.87829,7.37847 0,3.22094 -1.50767,5.34539 -1.48483,2.12445 -4.34028,2.94682 z m -11.55885,-14.32291 0,12.10709 5.80227,0 q 3.33516,0 5.02559,-1.53052 1.71326,-1.55337 1.71326,-4.54587 0,-2.99251 -1.71326,-4.50019 -1.69043,-1.53051 -5.02559,-1.53051 l -5.80227,0 z"/>
		<path d="m 432.214,505.89455 6.21345,0 15.12244,28.53162 0,-28.53162 4.47734,0 0,34.10545 -6.21345,0 -15.12244,-28.53162 0,28.53162 -4.47734,0 0,-34.10545 z"/>
		<path d="m 486.05354,509.02412 q -5.02558,0 -7.99525,3.74635 -2.94682,3.74634 -2.94682,10.21107 0,6.44189 2.94682,10.18823 2.96967,3.74635 7.99525,3.74635 5.02559,0 7.94956,-3.74635 2.94682,-3.74634 2.94682,-10.18823 0,-6.46473 -2.94682,-10.21107 -2.92397,-3.74635 -7.94956,-3.74635 z m 0,-3.74634 q 7.17288,0 11.46747,4.81999 4.29459,4.79715 4.29459,12.88377 0,8.06378 -4.29459,12.88377 -4.29459,4.79715 -11.46747,4.79715 -7.19572,0 -11.51316,-4.79715 -4.29459,-4.79714 -4.29459,-12.88377 0,-8.08662 4.29459,-12.88377 4.31744,-4.81999 11.51316,-4.81999 z"/>
		<path d="m 534.47915,507.01389 0,4.50018 q -2.62701,-1.2564 -4.95705,-1.87317 -2.33004,-0.61678 -4.50018,-0.61678 -3.76919,0 -5.82511,1.46199 -2.03308,1.46199 -2.03308,4.15753 0,2.26151 1.34777,3.42654 1.37061,1.14217 5.16265,1.85032 l 2.78691,0.57109 q 5.16265,0.98228 7.60691,3.47223 2.4671,2.4671 2.4671,6.62463 0,4.95705 -3.33516,7.51553 -3.31231,2.55848 -9.73136,2.55848 -2.42141,0 -5.16264,-0.54824 -2.71839,-0.54825 -5.64236,-1.6219 l 0,-4.75146 q 2.80976,1.57621 5.5053,2.37573 2.69554,0.79953 5.2997,0.79953 3.95194,0 6.09924,-1.55336 2.14729,-1.55337 2.14729,-4.43166 0,-2.51279 -1.55336,-3.92909 -1.53052,-1.4163 -5.04843,-2.12445 l -2.80976,-0.54825 q -5.16264,-1.02796 -7.46984,-3.22094 -2.3072,-2.19298 -2.3072,-6.09923 0,-4.52303 3.17525,-7.1272 3.1981,-2.60416 8.79477,-2.60416 2.39858,0 4.88853,0.43402 2.48995,0.43403 5.09411,1.30209 z"/>
		<path d="m 580.02374,510.44042 -6.25914,16.97277 12.54112,0 -6.28198,-16.97277 z m -2.60417,-4.54587 5.23118,0 12.99799,34.10545 -4.79715,0 -3.10673,-8.74909 -15.37372,0 -3.10672,8.74909 -4.86568,0 13.02083,-34.10545 z"/>
		<path d="m 605.60582,505.89455 6.21345,0 15.12244,28.53162 0,-28.53162 4.47734,0 0,34.10545 -6.21345,0 -15.12244,-28.53162 0,28.53162 -4.47734,0 0,-34.10545 z"/>
		<path d="m 650.21655,509.68659 0,26.52138 5.57383,0 q 7.05867,0 10.3253,-3.1981 3.28947,-3.1981 3.28947,-10.09686 0,-6.85307 -3.28947,-10.02832 -3.26663,-3.1981 -10.3253,-3.1981 l -5.57383,0 z m -4.6144,-3.79204 9.48008,0 q 9.91411,0 14.55136,4.13469 4.63724,4.11184 4.63724,12.88377 0,8.81762 -4.66009,12.9523 Q 664.95066,540 655.08223,540 l -9.48008,0 0,-34.10545 z"/>
		<path d="m 722.67085,524.0095 q 1.48483,0.50256 2.87829,2.1473 1.4163,1.64473 2.8326,4.52302 l 4.68293,9.32018 -4.95705,0 -4.36313,-8.74909 q -1.69042,-3.42653 -3.28947,-4.54587 -1.57621,-1.11933 -4.31743,-1.11933 l -5.02559,0 0,14.41429 -4.6144,0 0,-34.10545 10.41667,0 q 5.84795,0 8.72624,2.44427 2.87829,2.44426 2.87829,7.37847 0,3.22094 -1.50768,5.34539 -1.48483,2.12445 -4.34027,2.94682 z m -11.55885,-14.32291 0,12.10709 5.80227,0 q 3.33516,0 5.02558,-1.53052 1.71327,-1.55337 1.71327,-4.54587 0,-2.99251 -1.71327,-4.50019 -1.69042,-1.53051 -5.02558,-1.53051 l -5.80227,0 z"/>
		<path d="m 744.02684,505.89455 4.6144,0 0,34.10545 -4.6144,0 0,-34.10545 z"/>
		<path d="m 788.36349,508.52156 0,4.86568 q -2.33004,-2.17014 -4.9799,-3.24378 -2.62701,-1.07365 -5.59667,-1.07365 -5.84795,0 -8.95468,3.58644 -3.10672,3.5636 -3.10672,10.32529 0,6.73885 3.10672,10.32529 3.10673,3.5636 8.95468,3.5636 2.96966,0 5.59667,-1.07365 2.64986,-1.07364 4.9799,-3.24378 l 0,4.81999 q -2.42142,1.64474 -5.1398,2.46711 -2.69554,0.82236 -5.71089,0.82236 -7.74397,0 -12.19847,-4.72862 -4.45449,-4.75146 -4.45449,-12.9523 0,-8.22368 4.45449,-12.9523 4.4545,-4.75146 12.19847,-4.75146 3.06103,0 5.75658,0.82237 2.71838,0.79952 5.09411,2.42141 z"/>
		<path d="m 800.53636,505.89455 4.6144,0 0,13.98027 16.76718,0 0,-13.98027 4.6144,0 0,34.10545 -4.6144,0 0,-16.24178 -16.76718,0 0,16.24178 -4.6144,0 0,-34.10545 z"/>
		<path d="m 852.11438,510.44042 -6.25914,16.97277 12.54112,0 -6.28198,-16.97277 z m -2.60417,-4.54587 5.23118,0 12.99799,34.10545 -4.79715,0 -3.10673,-8.74909 -15.37372,0 -3.10673,8.74909 -4.86568,0 13.02084,-34.10545 z"/>
		<path d="m 893.8697,524.0095 q 1.48483,0.50256 2.87829,2.1473 1.4163,1.64473 2.8326,4.52302 l 4.68293,9.32018 -4.95705,0 -4.36312,-8.74909 q -1.69043,-3.42653 -3.28948,-4.54587 -1.5762,-1.11933 -4.31743,-1.11933 l -5.02559,0 0,14.41429 -4.6144,0 0,-34.10545 10.41667,0 q 5.84795,0 8.72624,2.44427 2.87829,2.44426 2.87829,7.37847 0,3.22094 -1.50767,5.34539 -1.48484,2.12445 -4.34028,2.94682 z m -11.55885,-14.32291 0,12.10709 5.80227,0 q 3.33516,0 5.02558,-1.53052 1.71327,-1.55337 1.71327,-4.54587 0,-2.99251 -1.71327,-4.50019 -1.69042,-1.53051 -5.02558,-1.53051 l -5.80227,0 z"/>
		<path d="m 919.84009,509.68659 0,26.52138 5.57383,0 q 7.05866,0 10.32529,-3.1981 3.28948,-3.1981 3.28948,-10.09686 0,-6.85307 -3.28948,-10.02832 -3.26663,-3.1981 -10.32529,-3.1981 l -5.57383,0 z m -4.6144,-3.79204 9.48008,0 q 9.91411,0 14.55135,4.13469 4.63725,4.11184 4.63725,12.88377 0,8.81762 -4.66009,12.9523 Q 934.57419,540 924.70577,540 l -9.48008,0 0,-34.10545 z"/>
		<path d="m 987.52008,510.44042 -6.25914,16.97277 12.54112,0 -6.28198,-16.97277 z m -2.60417,-4.54587 5.23118,0 12.99801,34.10545 -4.79717,0 -3.10673,-8.74909 -15.37372,0 -3.10672,8.74909 -4.86568,0 13.02083,-34.10545 z"/>
		<path d="m 1013.1022,505.89455 4.6144,0 0,30.22204 16.6072,0 0,3.88341 -21.2216,0 0,-34.10545 z"/>
		<path d="m 1048.7582,509.68659 0,26.52138 5.5739,0 q 7.0586,0 10.3253,-3.1981 3.2894,-3.1981 3.2894,-10.09686 0,-6.85307 -3.2894,-10.02832 -3.2667,-3.1981 -10.3253,-3.1981 l -5.5739,0 z m -4.6144,-3.79204 9.4801,0 q 9.9141,0 14.5514,4.13469 4.6372,4.11184 4.6372,12.88377 0,8.81762 -4.6601,12.9523 Q 1063.4923,540 1053.6239,540 l -9.4801,0 0,-34.10545 z"/>
		<path d="m 1085.1453,505.89455 4.6144,0 0,34.10545 -4.6144,0 0,-34.10545 z"/>
		<path d="m 1103.9428,505.89455 6.2134,0 15.1225,28.53162 0,-28.53162 4.4773,0 0,34.10545 -6.2134,0 -15.1225,-28.53162 0,28.53162 -4.4773,0 0,-34.10545 z"/>
		<path d="m 1167.1939,535.13432 0,-9.16027 -7.5384,0 0,-3.79203 12.1071,0 0,14.64272 q -2.6727,1.89602 -5.8936,2.87829 -3.221,0.95943 -6.876,0.95943 -7.9952,0 -12.5182,-4.66008 -4.5002,-4.68294 -4.5002,-13.02084 0,-8.36074 4.5002,-13.02083 4.523,-4.68293 12.5182,-4.68293 3.3352,0 6.3277,0.82237 3.0154,0.82236 5.551,2.42141 l 0,4.91137 q -2.5585,-2.17014 -5.4368,-3.26663 -2.8783,-1.09649 -6.0535,-1.09649 -6.2592,0 -9.4116,3.49507 -3.1295,3.49506 -3.1295,10.41666 0,6.89876 3.1295,10.39383 3.1524,3.49506 9.4116,3.49506 2.4442,0 4.3631,-0.41118 1.9189,-0.43403 3.4494,-1.32493 z"/>
		<path d="m 1178.8414,505.89455 28.8514,0 0,3.88341 -12.1071,0 0,30.22204 -4.6372,0 0,-30.22204 -12.1071,0 0,-3.88341 z"/>
		<path d="m 1231.0133,509.02412 q -5.0256,0 -7.9953,3.74635 -2.9468,3.74634 -2.9468,10.21107 0,6.44189 2.9468,10.18823 2.9697,3.74635 7.9953,3.74635 5.0256,0 7.9495,-3.74635 2.9469,-3.74634 2.9469,-10.18823 0,-6.46473 -2.9469,-10.21107 -2.9239,-3.74635 -7.9495,-3.74635 z m 0,-3.74634 q 7.1729,0 11.4675,4.81999 4.2945,4.79715 4.2945,12.88377 0,8.06378 -4.2945,12.88377 -4.2946,4.79715 -11.4675,4.79715 -7.1957,0 -11.5132,-4.79715 -4.2946,-4.79714 -4.2946,-12.88377 0,-8.08662 4.2946,-12.88377 4.3175,-4.81999 11.5132,-4.81999 z"/>
		<path d="m 1258.9939,505.89455 6.2135,0 15.1224,28.53162 0,-28.53162 4.4774,0 0,34.10545 -6.2135,0 -15.1224,-28.53162 0,28.53162 -4.4774,0 0,-34.10545 z"/>
	</g>
</svg>
